<?xml version="1.0" encoding="UTF-8" standalone="no"?><svg id="Layer_1" data-name="Layer 1" xmlns="http://www.w3.org/2000/svg" xmlns:xlink="http://www.w3.org/1999/xlink" viewBox="0 0 16 16"><defs><style>.cls-1{fill:url(#linear-gradient);}.cls-2{fill:#fff;}</style><linearGradient id="linear-gradient" x1="0.31" y1="8" x2="15.69" y2="8" gradientUnits="userSpaceOnUse"><stop offset="0" stop-color="#57b6e6"/><stop offset="0.03" stop-color="#54b2e1"/><stop offset="0.31" stop-color="#3b91bf"/><stop offset="0.57" stop-color="#297aa7"/><stop offset="0.8" stop-color="#1e6c98"/><stop offset="1" stop-color="#1a6793"/></linearGradient></defs><path class="cls-1" d="M7.76.7.52,5.39a.44.44,0,0,0,.24.82h.5a.14.14,0,0,1,.14.15v8.56a.45.45,0,0,0,.45.45h12.3a.45.45,0,0,0,.45-.45V6.36a.14.14,0,0,1,.14-.15h.5a.44.44,0,0,0,.24-.82L8.24.7A.46.46,0,0,0,7.76.7Z"/><path class="cls-2" d="M7,11H4v1.89H7.29l-.14,1H2.82V7.35h4.3v1H4V10H7Z"/><path class="cls-2" d="M8.13,13l3.56-4.63H8.3v-1H13v1L9.57,12.89h3.61l-.15,1H8.13Z"/></svg>